# xmcd
#
# Track frame offsets: 
#        150
#        17871
#        35696
#        56172
#        68213
#        89738
#        104575
#        121633
#        139499
#        154727
#        179945
#        197830
#        216127
#        237004
#        258192
#        273831
#        292594
#
# Disc length: 4158 seconds
#
# Revision: 3
# Processed by: cddbd v1.5.1PL0 Copyright (c) Steve Scherf et al.
# Submitted via: ExactAudioCopy v0.95a5
#
DISCID=02103c11
DTITLE=周杰伦 - 范特西
DYEAR=1900
DGENRE=R&B
TTITLE0=爱在西元前
TTITLE1=爸我回来了
TTITLE2=简单爱
TTITLE3=忍者
TTITLE4=开不了口
TTITLE5=上海一九四三
TTITLE6=对不起
TTITLE7=威廉古堡
TTITLE8=双截棍
TTITLE9=安静
TTITLE10=可爱女人
TTITLE11=完美主义
TTITLE12=斗牛
TTITLE13=黑色幽默
TTITLE14=伊斯坦堡
TTITLE15=龙卷风
TTITLE16=反方向的钟
EXTD=
EXTT0=
EXTT1=
EXTT2=
EXTT3=
EXTT4=
EXTT5=
EXTT6=
EXTT7=
EXTT8=
EXTT9=
EXTT10=
EXTT11=
EXTT12=
EXTT13=
EXTT14=
EXTT15=
EXTT16=
PLAYORDER=
